ffmpeg started on 2018-11-18 at 15:18:58
Report written to "ffreport.log"
Command line:
"C:\\Program Files (x86)\\Konayuki-moe\\KONAYUKI PLUS\\codecs\\ffmpeg.exe" -loglevel panic -i test.avs -f null -
ffmpeg version 4.0.2 Copyright (c) 2000-2018 the FFmpeg developers
  built with gcc 7.3.1 (GCC) 20180722
  configuration: --enable-gpl --enable-version3 --enable-sdl2 --enable-bzlib --enable-fontconfig --enable-gnutls --enable-iconv --enable-libass --enable-libbluray --enable-libfreetype --enable-libmp3lame --enable-libopencore-amrnb --enable-libopencore-amrwb --enable-libopenjpeg --enable-libopus --enable-libshine --enable-libsnappy --enable-libsoxr --enable-libtheora --enable-libtwolame --enable-libvpx --enable-libwavpack --enable-libwebp --enable-libx264 --enable-libx265 --enable-libxml2 --enable-libzimg --enable-lzma --enable-zlib --enable-gmp --enable-libvidstab --enable-libvorbis --enable-libvo-amrwbenc --enable-libmysofa --enable-libspeex --enable-libxvid --enable-libaom --enable-libmfx --enable-amf --enable-ffnvcodec --enable-cuvid --enable-d3d11va --enable-nvenc --enable-nvdec --enable-dxva2 --enable-avisynth
  libavutil      56. 14.100 / 56. 14.100
  libavcodec     58. 18.100 / 58. 18.100
  libavformat    58. 12.100 / 58. 12.100
  libavdevice    58.  3.100 / 58.  3.100
  libavfilter     7. 16.100 /  7. 16.100
  libswscale      5.  1.100 /  5.  1.100
  libswresample   3.  1.100 /  3.  1.100
  libpostproc    55.  1.100 / 55.  1.100
Guessed Channel Layout for Input Stream #0.1 : stereo
Input #0, avisynth, from 'test.avs':
  Duration: 00:01:00.04, start: 0.000000, bitrate: 0 kb/s
    Stream #0:0: Video: rawvideo (BGR[24] / 0x18524742), bgr24, 720x70, 24 fps, 24 tbr, 24 tbn, 24 tbc
    Stream #0:1: Audio: pcm_f32le, 44100 Hz, stereo, flt, 2822 kb/s
Stream mapping:
  Stream #0:0 -> #0:0 (rawvideo (native) -> wrapped_avframe (native))
  Stream #0:1 -> #0:1 (pcm_f32le (native) -> pcm_s16le (native))
Press [q] to stop, [?] for help
Output #0, null, to 'pipe:':
  Metadata:
    encoder         : KONAYUKI PLUS
    Stream #0:0: Video: wrapped_avframe, bgr24(progressive), 720x70, q=2-31, 200 kb/s, 24 fps, 24 tbn, 24 tbc
    Metadata:
      encoder         : KONAYUKI PLUS wrapped_avframe
    Stream #0:1: Audio: pcm_s16le, 44100 Hz, stereo, s16, 1411 kb/s
    Metadata:
      encoder         : KONAYUKI PLUS pcm_s16le
frame=   24 fps=0.0 q=-0.0 size=N/A time=00:00:01.00 bitrate=N/A speed=1.98x    frame=   52 fps= 51 q=-0.0 size=N/A time=00:00:02.16 bitrate=N/A speed=2.11x    frame=   62 fps= 40 q=-0.0 size=N/A time=00:00:02.58 bitrate=N/A speed=1.66x    frame=   72 fps= 34 q=-0.0 size=N/A time=00:00:03.00 bitrate=N/A speed=1.44x    frame=   82 fps= 31 q=-0.0 size=N/A time=00:00:03.41 bitrate=N/A speed= 1.3x    frame=   92 fps= 29 q=-0.0 size=N/A time=00:00:03.83 bitrate=N/A speed=1.21x    frame=  102 fps= 28 q=-0.0 size=N/A time=00:00:04.25 bitrate=N/A speed=1.15x    frame=  112 fps= 26 q=-0.0 size=N/A time=00:00:04.66 bitrate=N/A speed= 1.1x    frame=  127 fps= 27 q=-0.0 size=N/A time=00:00:05.29 bitrate=N/A speed=1.12x    frame=  168 fps= 32 q=-0.0 size=N/A time=00:00:07.00 bitrate=N/A speed=1.34x    frame=  178 fps= 31 q=-0.0 size=N/A time=00:00:07.41 bitrate=N/A speed=1.29x    frame=  188 fps= 30 q=-0.0 size=N/A time=00:00:07.83 bitrate=N/A speed=1.25x    frame=  198 fps= 29 q=-0.0 size=N/A time=00:00:08.25 bitrate=N/A speed=1.22x    frame=  208 fps= 29 q=-0.0 size=N/A time=00:00:08.66 bitrate=N/A speed=1.19x    frame=  218 fps= 28 q=-0.0 size=N/A time=00:00:09.08 bitrate=N/A speed=1.16x    frame=  228 fps= 27 q=-0.0 size=N/A time=00:00:09.50 bitrate=N/A speed=1.14x    frame=  239 fps= 27 q=-0.0 size=N/A time=00:00:09.95 bitrate=N/A speed=1.13x    frame=  270 fps= 29 q=-0.0 size=N/A time=00:00:11.25 bitrate=N/A speed= 1.2x    frame=  294 fps= 30 q=-0.0 size=N/A time=00:00:12.25 bitrate=N/A speed=1.24x    frame=  304 fps= 29 q=-0.0 size=N/A time=00:00:12.66 bitrate=N/A speed=1.22x    frame=  314 fps= 29 q=-0.0 size=N/A time=00:00:13.08 bitrate=N/A speed= 1.2x    frame=  325 fps= 28 q=-0.0 size=N/A time=00:00:13.54 bitrate=N/A speed=1.18x    frame=  335 fps= 28 q=-0.0 size=N/A time=00:00:13.95 bitrate=N/A speed=1.17x    frame=  345 fps= 28 q=-0.0 size=N/A time=00:00:14.37 bitrate=N/A speed=1.15x    frame=  355 fps= 27 q=-0.0 size=N/A time=00:00:14.79 bitrate=N/A speed=1.14x    frame=  373 fps= 28 q=-0.0 size=N/A time=00:00:15.54 bitrate=N/A speed=1.15x    frame=  410 fps= 29 q=-0.0 size=N/A time=00:00:17.08 bitrate=N/A speed=1.22x    frame=  420 fps= 29 q=-0.0 size=N/A time=00:00:17.50 bitrate=N/A speed= 1.2x    frame=  431 fps= 29 q=-0.0 size=N/A time=00:00:17.95 bitrate=N/A speed=1.19x    frame=  442 fps= 28 q=-0.0 size=N/A time=00:00:18.41 bitrate=N/A speed=1.18x    frame=  453 fps= 28 q=-0.0 size=N/A time=00:00:18.87 bitrate=N/A speed=1.17x    frame=  464 fps= 28 q=-0.0 size=N/A time=00:00:19.33 bitrate=N/A speed=1.17x    frame=  475 fps= 28 q=-0.0 size=N/A time=00:00:19.79 bitrate=N/A speed=1.16x    frame=  502 fps= 28 q=-0.0 size=N/A time=00:00:20.91 bitrate=N/A speed=1.19x    frame=  532 fps= 29 q=-0.0 size=N/A time=00:00:22.16 bitrate=N/A speed=1.22x    frame=  542 fps= 29 q=-0.0 size=N/A time=00:00:22.58 bitrate=N/A speed=1.21x    frame=  552 fps= 29 q=-0.0 size=N/A time=00:00:23.00 bitrate=N/A speed= 1.2x    frame=  562 fps= 29 q=-0.0 size=N/A time=00:00:23.41 bitrate=N/A speed=1.19x    frame=  572 fps= 28 q=-0.0 size=N/A time=00:00:23.83 bitrate=N/A speed=1.18x    frame=  582 fps= 28 q=-0.0 size=N/A time=00:00:24.25 bitrate=N/A speed=1.17x    frame=  592 fps= 28 q=-0.0 size=N/A time=00:00:24.66 bitrate=N/A speed=1.16x    frame=  606 fps= 28 q=-0.0 size=N/A time=00:00:25.25 bitrate=N/A speed=1.16x    frame=  636 fps= 28 q=-0.0 size=N/A time=00:00:26.50 bitrate=N/A speed=1.19x    frame=  653 fps= 29 q=-0.0 size=N/A time=00:00:27.20 bitrate=N/A speed=1.19x    frame=  662 fps= 28 q=-0.0 size=N/A time=00:00:27.58 bitrate=N/A speed=1.18x    frame=  672 fps= 28 q=-0.0 size=N/A time=00:00:28.00 bitrate=N/A speed=1.17x    frame=  682 fps= 28 q=-0.0 size=N/A time=00:00:28.41 bitrate=N/A speed=1.16x    frame=  692 fps= 28 q=-0.0 size=N/A time=00:00:28.83 bitrate=N/A speed=1.15x    frame=  702 fps= 27 q=-0.0 size=N/A time=00:00:29.25 bitrate=N/A speed=1.14x    frame=  712 fps= 27 q=-0.0 size=N/A time=00:00:29.66 bitrate=N/A speed=1.14x    frame=  721 fps= 27 q=-0.0 size=N/A time=00:00:30.04 bitrate=N/A speed=1.13x    frame=  746 fps= 28 q=-0.0 size=N/A time=00:00:31.08 bitrate=N/A speed=1.15x    frame=  772 fps= 28 q=-0.0 size=N/A time=00:00:32.16 bitrate=N/A speed=1.16x    frame=  782 fps= 28 q=-0.0 size=N/A time=00:00:32.58 bitrate=N/A speed=1.16x    frame=  792 fps= 28 q=-0.0 size=N/A time=00:00:33.00 bitrate=N/A speed=1.15x    frame=  802 fps= 27 q=-0.0 size=N/A time=00:00:33.41 bitrate=N/A speed=1.14x    frame=  812 fps= 27 q=-0.0 size=N/A time=00:00:33.83 bitrate=N/A speed=1.14x    frame=  823 fps= 27 q=-0.0 size=N/A time=00:00:34.29 bitrate=N/A speed=1.13x    frame=  833 fps= 27 q=-0.0 size=N/A time=00:00:34.70 bitrate=N/A speed=1.13x    frame=  852 fps= 27 q=-0.0 size=N/A time=00:00:35.50 bitrate=N/A speed=1.13x    frame=  887 fps= 28 q=-0.0 size=N/A time=00:00:36.95 bitrate=N/A speed=1.16x    frame=  898 fps= 28 q=-0.0 size=N/A time=00:00:37.41 bitrate=N/A speed=1.16x    frame=  908 fps= 28 q=-0.0 size=N/A time=00:00:37.83 bitrate=N/A speed=1.15x    frame=  918 fps= 27 q=-0.0 size=N/A time=00:00:38.25 bitrate=N/A speed=1.14x    frame=  928 fps= 27 q=-0.0 size=N/A time=00:00:38.66 bitrate=N/A speed=1.14x    frame=  938 fps= 27 q=-0.0 size=N/A time=00:00:39.08 bitrate=N/A speed=1.13x    frame=  948 fps= 27 q=-0.0 size=N/A time=00:00:39.50 bitrate=N/A speed=1.13x    frame=  957 fps= 27 q=-0.0 size=N/A time=00:00:39.87 bitrate=N/A speed=1.12x    frame=  989 fps= 27 q=-0.0 size=N/A time=00:00:41.20 bitrate=N/A speed=1.14x    frame= 1012 fps= 28 q=-0.0 size=N/A time=00:00:42.16 bitrate=N/A speed=1.15x    frame= 1022 fps= 28 q=-0.0 size=N/A time=00:00:42.58 bitrate=N/A speed=1.15x    frame= 1032 fps= 27 q=-0.0 size=N/A time=00:00:43.00 bitrate=N/A speed=1.14x    frame= 1042 fps= 27 q=-0.0 size=N/A time=00:00:43.41 bitrate=N/A speed=1.14x    frame= 1052 fps= 27 q=-0.0 size=N/A time=00:00:43.83 bitrate=N/A speed=1.13x    frame= 1062 fps= 27 q=-0.0 size=N/A time=00:00:44.25 bitrate=N/A speed=1.13x    frame= 1073 fps= 27 q=-0.0 size=N/A time=00:00:44.70 bitrate=N/A speed=1.13x    frame= 1093 fps= 27 q=-0.0 size=N/A time=00:00:45.54 bitrate=N/A speed=1.13x    frame= 1130 fps= 28 q=-0.0 size=N/A time=00:00:47.08 bitrate=N/A speed=1.16x    frame= 1139 fps= 28 q=-0.0 size=N/A time=00:00:47.45 bitrate=N/A speed=1.15x    frame= 1149 fps= 27 q=-0.0 size=N/A time=00:00:47.87 bitrate=N/A speed=1.15x    frame= 1159 fps= 27 q=-0.0 size=N/A time=00:00:48.29 bitrate=N/A speed=1.14x    frame= 1169 fps= 27 q=-0.0 size=N/A time=00:00:48.70 bitrate=N/A speed=1.14x    frame= 1179 fps= 27 q=-0.0 size=N/A time=00:00:49.12 bitrate=N/A speed=1.13x    frame= 1189 fps= 27 q=-0.0 size=N/A time=00:00:49.54 bitrate=N/A speed=1.13x    frame= 1199 fps= 27 q=-0.0 size=N/A time=00:00:49.95 bitrate=N/A speed=1.12x    frame= 1237 fps= 28 q=-0.0 size=N/A time=00:00:51.54 bitrate=N/A speed=1.15x    frame= 1255 fps= 28 q=-0.0 size=N/A time=00:00:52.29 bitrate=N/A speed=1.15x    frame= 1265 fps= 28 q=-0.0 size=N/A time=00:00:52.70 bitrate=N/A speed=1.15x    frame= 1275 fps= 27 q=-0.0 size=N/A time=00:00:53.12 bitrate=N/A speed=1.14x    frame= 1285 fps= 27 q=-0.0 size=N/A time=00:00:53.54 bitrate=N/A speed=1.14x    frame= 1295 fps= 27 q=-0.0 size=N/A time=00:00:53.95 bitrate=N/A speed=1.13x    frame= 1304 fps= 27 q=-0.0 size=N/A time=00:00:54.33 bitrate=N/A speed=1.13x    frame= 1310 fps= 27 q=-0.0 Lsize=N/A time=00:00:54.58 bitrate=N/A speed=1.13x    
video:686kB audio:9396kB subtitle:0kB other streams:0kB global headers:0kB muxing overhead: unknown
Exiting normally, received signal 15.
